<mxfile host="app.diagrams.net" modified="2024-06-01T15:05:15.782Z" agent="Mozilla/5.0 (Windows NT 10.0; Win64; x64) AppleWebKit/537.36 (KHTML, like Gecko) Chrome/125.0.0.0 Safari/537.36" version="24.4.13" etag="33-uZzwwnXAH_SwmbbBc" type="device">
  <diagram name="Class Diagram" id="0">
    <mxGraphModel dx="1434" dy="738" grid="1" gridSize="10" guides="1" tooltips="1" connect="1" arrows="1" fold="1" page="1" pageScale="1" pageWidth="827" pageHeight="1169" math="0" shadow="0">
      <root>
        <mxCell id="0" />
        <mxCell id="1" parent="0" />
        <mxCell id="2" value="Money" style="shape=swimlane;rounded=0;whiteSpace=wrap;html=1;" parent="1" vertex="1">
          <mxGeometry x="70" y="170" width="120" height="130" as="geometry" />
        </mxCell>
        <mxCell id="3" value="dollars: number&#xa;cents: number" style="rounded=0;whiteSpace=wrap;html=1;" parent="2" vertex="1">
          <mxGeometry y="45" width="120" height="40" as="geometry" />
        </mxCell>
        <mxCell id="4" value="setDollars(dollars)&#xa;setCents(cents)&#xa;display()" style="rounded=0;whiteSpace=wrap;html=1;" parent="2" vertex="1">
          <mxGeometry y="90" width="120" height="40" as="geometry" />
        </mxCell>
        <mxCell id="5" value="Product" style="shape=swimlane;rounded=0;whiteSpace=wrap;html=1;startSize=40;" parent="1" vertex="1">
          <mxGeometry x="220" y="40" width="160" height="150" as="geometry" />
        </mxCell>
        <mxCell id="6" value="name: string&#xa;price: Money" style="rounded=0;whiteSpace=wrap;html=1;" parent="5" vertex="1">
          <mxGeometry y="40" width="160" height="80" as="geometry" />
        </mxCell>
        <mxCell id="7" value="reducePrice(amount)&#xa;display()" style="rounded=0;whiteSpace=wrap;html=1;" parent="5" vertex="1">
          <mxGeometry y="120" width="160" height="40" as="geometry" />
        </mxCell>
        <mxCell id="8" value="Warehouse" style="shape=swimlane;rounded=0;whiteSpace=wrap;html=1;" parent="1" vertex="1">
          <mxGeometry x="414" y="40" width="160" height="190" as="geometry" />
        </mxCell>
        <mxCell id="9" value="name: string&#xa;unit: string&#xa;pricePerUnit: number&#xa;quantity: number&#xa;lastDeliveryDate: Date" style="rounded=0;whiteSpace=wrap;html=1;" parent="8" vertex="1">
          <mxGeometry y="40" width="160" height="90" as="geometry" />
        </mxCell>
        <mxCell id="10" value="changeQuantity(amount)&#xa;display()" style="rounded=0;whiteSpace=wrap;html=1;" parent="8" vertex="1">
          <mxGeometry y="130" width="160" height="60" as="geometry" />
        </mxCell>
        <mxCell id="11" value="Reporting" style="shape=swimlane;rounded=0;whiteSpace=wrap;html=1;" parent="1" vertex="1">
          <mxGeometry x="590" y="40" width="180" height="190" as="geometry" />
        </mxCell>
        <mxCell id="bB46KoQmsNsP0oJphSsI-20" style="edgeStyle=orthogonalEdgeStyle;rounded=0;orthogonalLoop=1;jettySize=auto;html=1;" edge="1" parent="11" source="12" target="11">
          <mxGeometry relative="1" as="geometry" />
        </mxCell>
        <mxCell id="12" value="warehouseItems: array" style="rounded=0;whiteSpace=wrap;html=1;" parent="11" vertex="1">
          <mxGeometry y="40" width="180" height="60" as="geometry" />
        </mxCell>
        <mxCell id="13" value="addWarehouseItem(item)&#xa;registerArrival(name, qty)&#xa;registerShipment(name, qty)&#xa;generateInventoryReport()" style="rounded=0;whiteSpace=wrap;html=1;" parent="11" vertex="1">
          <mxGeometry y="100" width="180" height="90" as="geometry" />
        </mxCell>
        <mxCell id="14" value="Euro" style="shape=swimlane;rounded=0;whiteSpace=wrap;html=1;" parent="1" vertex="1">
          <mxGeometry x="70" y="40" width="120" height="80" as="geometry" />
        </mxCell>
        <mxCell id="15" value="euros: number&#xa;cents: number" style="rounded=0;whiteSpace=wrap;html=1;" parent="14" vertex="1">
          <mxGeometry y="40" width="120" height="40" as="geometry" />
        </mxCell>
        <mxCell id="16" style="edgeStyle=orthogonalEdgeStyle;rounded=0;orthogonalLoop=1;jettySize=auto;html=1;exitX=0.5;exitY=1;exitDx=0;exitDy=0;entryX=0.5;entryY=0;entryDx=0;entryDy=0;endArrow=block;" parent="1" source="14" target="2" edge="1">
          <mxGeometry relative="1" as="geometry" />
        </mxCell>
      </root>
    </mxGraphModel>
  </diagram>
</mxfile>
